<svg width="623" height="94" viewBox="0 0 623 94" version="1.1" xmlns="http://www.w3.org/2000/svg" xmlns:xlink="http://www.w3.org/1999/xlink">
<title>Long Trail Prep</title>
<desc>Created using Figma</desc>
<g id="Canvas" transform="translate(-21349 2332)">
<g id="Long Trail Prep">
<g id="Vector">
<use xlink:href="#path0_fill" transform="translate(21349 -2332)" fill="#373646"/>
</g>
<g id="Long Trail Prep">
<use xlink:href="#path1_fill" transform="translate(21454.8 -2319.81)" fill="#373646"/>
<use xlink:href="#path2_fill" transform="translate(21454.8 -2319.81)" fill="#373646"/>
<use xlink:href="#path3_fill" transform="translate(21454.8 -2319.81)" fill="#373646"/>
<use xlink:href="#path4_fill" transform="translate(21454.8 -2319.81)" fill="#373646"/>
<use xlink:href="#path5_fill" transform="translate(21454.8 -2319.81)" fill="#373646"/>
<use xlink:href="#path6_fill" transform="translate(21454.8 -2319.81)" fill="#373646"/>
<use xlink:href="#path7_fill" transform="translate(21454.8 -2319.81)" fill="#373646"/>
<use xlink:href="#path8_fill" transform="translate(21454.8 -2319.81)" fill="#373646"/>
<use xlink:href="#path9_fill" transform="translate(21454.8 -2319.81)" fill="#373646"/>
<use xlink:href="#path10_fill" transform="translate(21454.8 -2319.81)" fill="#373646"/>
<use xlink:href="#path11_fill" transform="translate(21454.8 -2319.81)" fill="#373646"/>
<use xlink:href="#path12_fill" transform="translate(21454.8 -2319.81)" fill="#373646"/>
<use xlink:href="#path13_fill" transform="translate(21454.8 -2319.81)" fill="#373646"/>
</g>
</g>
</g>
<defs>
<path id="path0_fill" d="M 58.58 54.506C 59.106 55.032 59.795 55.295 60.484 55.295C 61.173 55.295 61.862 55.032 62.388 54.506C 63.44 53.454 63.44 51.75 62.388 50.698L 34.281 22.592L 34.281 9.191L 58.58 33.49C 59.106 34.016 59.795 34.279 60.484 34.279C 61.173 34.279 61.862 34.016 62.388 33.49C 63.44 32.438 63.44 30.734 62.388 29.682L 33.495 0.789C 33.246 0.539 32.947 0.341 32.616 0.204C 31.958 -0.068 31.218 -0.068 30.56 0.204C 30.229 0.341 29.93 0.539 29.681 0.789L 0.789 29.681C -0.263 30.733 -0.263 32.437 0.789 33.489C 1.841 34.541 3.545 34.541 4.597 33.489L 28.896 9.19L 28.896 22.591L 0.789 50.698C -0.263 51.75 -0.263 53.454 0.789 54.506C 1.841 55.558 3.545 55.558 4.597 54.506L 28.896 30.207L 28.896 43.613L 0.789 71.72C -0.263 72.772 -0.263 74.476 0.789 75.528C 1.841 76.58 3.545 76.58 4.597 75.528L 28.895 51.23L 28.895 87.184C 28.895 88.672 30.099 89.877 31.588 89.877C 33.077 89.877 34.281 88.673 34.281 87.184L 34.281 51.23L 58.58 75.529C 59.106 76.055 59.795 76.318 60.484 76.318C 61.173 76.318 61.862 76.055 62.388 75.529C 63.44 74.477 63.44 72.773 62.388 71.721L 34.281 43.614L 34.281 30.207L 58.58 54.506Z"/>
<path id="path1_fill" d="M 9.912 51.156L 32.34 51.156L 32.34 59.808L 0 59.808L 0 5.292L 9.912 5.292L 9.912 51.156Z"/>
<path id="path2_fill" d="M 53.3518 17.892C 56.0958 17.892 58.6718 18.34 61.0798 19.236C 63.4878 20.076 65.5598 21.392 67.2958 23.184C 71.1598 27.104 73.0918 32.536 73.0918 39.48C 73.0918 46.312 71.1598 51.688 67.2958 55.608C 63.8238 59.192 59.1758 60.984 53.3518 60.984C 47.5278 60.984 42.8238 59.192 39.2398 55.608C 35.3758 51.744 33.4438 46.368 33.4438 39.48C 33.4438 32.48 35.3758 27.048 39.2398 23.184C 42.7678 19.656 47.4718 17.892 53.3518 17.892ZM 63.1798 39.396C 63.1798 35.084 62.3398 31.864 60.6598 29.736C 58.9798 27.552 56.6278 26.46 53.6038 26.46C 50.6358 26.46 48.1998 27.552 46.2958 29.736C 44.3918 31.864 43.4398 35.084 43.4398 39.396C 43.4398 43.708 44.2798 46.956 45.9598 49.14C 47.6958 51.268 50.0478 52.332 53.0158 52.332C 55.9838 52.332 58.4198 51.268 60.3238 49.14C 62.2278 46.956 63.1798 43.708 63.1798 39.396Z"/>
<path id="path3_fill" d="M 90.4299 26.04C 93.1179 20.608 97.4299 17.892 103.366 17.892C 108.406 17.892 112.186 19.544 114.706 22.848C 117.282 26.152 118.57 30.52 118.57 35.952L 118.57 59.808L 108.658 59.808L 108.658 35.952C 108.658 32.928 107.93 30.66 106.474 29.148C 105.018 27.58 102.974 26.796 100.342 26.796C 97.7099 26.796 95.4419 27.972 93.5379 30.324C 91.6899 32.676 90.7099 36.204 90.5979 40.908L 90.5979 59.808L 80.6859 59.808L 80.6859 18.984L 89.3379 18.984L 90.4299 26.04Z"/>
<path id="path4_fill" d="M 132.35 43.092C 129.046 40.292 127.394 36.792 127.394 32.592C 127.394 28.168 129.13 24.584 132.602 21.84C 135.962 19.208 139.798 17.892 144.11 17.892C 148.478 17.892 152.118 18.704 155.03 20.328C 155.366 17.136 156.738 14.56 159.146 12.6C 161.498 10.64 164.27 9.66 167.462 9.66L 166.958 19.152C 162.142 19.152 159.65 20.748 159.482 23.94C 161.554 26.516 162.59 29.148 162.59 31.836C 162.59 34.524 162.114 36.792 161.162 38.64C 160.21 40.432 158.922 41.944 157.298 43.176C 153.938 45.864 149.85 47.208 145.034 47.208C 142.29 47.208 139.798 46.788 137.558 45.948C 135.318 46.62 134.198 47.964 134.198 49.98C 134.198 52.5 136.326 53.76 140.582 53.76L 154.274 53.76C 163.57 53.76 168.218 57.008 168.218 63.504C 168.218 65.688 167.658 67.816 166.538 69.888C 165.474 72.016 163.906 73.892 161.834 75.516C 157.242 79.1 151.474 80.892 144.53 80.892C 137.81 80.892 132.35 79.52 128.15 76.776C 124.23 74.144 122.27 70.924 122.27 67.116C 122.27 64.596 123.026 62.58 124.538 61.068C 126.106 59.612 128.15 58.688 130.67 58.296C 127.366 56.28 125.714 53.788 125.714 50.82C 125.714 48.86 126.33 47.236 127.562 45.948C 128.794 44.604 130.39 43.652 132.35 43.092ZM 139.91 60.732C 134.646 60.956 132.014 62.944 132.014 66.696C 132.014 68.6 133.106 70.112 135.29 71.232C 137.53 72.408 140.162 72.996 143.186 72.996C 146.21 72.996 148.562 72.744 150.242 72.24C 151.978 71.736 153.434 71.064 154.61 70.224C 157.13 68.544 158.39 66.528 158.39 64.176C 158.39 63.168 158.026 62.328 157.298 61.656C 156.626 61.04 155.618 60.732 154.274 60.732L 139.91 60.732ZM 152.762 32.508C 152.762 30.212 152.118 28.364 150.83 26.964C 149.598 25.508 147.694 24.78 145.118 24.78C 142.542 24.78 140.582 25.508 139.238 26.964C 137.894 28.364 137.222 30.212 137.222 32.508C 137.222 34.748 137.894 36.596 139.238 38.052C 140.582 39.508 142.542 40.236 145.118 40.236C 147.694 40.236 149.598 39.508 150.83 38.052C 152.118 36.596 152.762 34.748 152.762 32.508Z"/>
<path id="path5_fill" d="M 183.251 5.292L 226.931 5.292L 226.931 13.86L 210.047 13.86L 210.047 59.808L 200.135 59.808L 200.135 13.86L 183.251 13.86L 183.251 5.292Z"/>
<path id="path6_fill" d="M 233.841 27.048C 236.305 21.168 240.001 18.228 244.929 18.228C 245.881 18.228 247.085 18.424 248.541 18.816L 248.373 28.728C 246.805 28.392 245.265 28.224 243.753 28.224C 237.145 28.224 233.841 32.788 233.841 41.916L 233.841 59.808L 223.929 59.808L 223.929 18.9L 233.841 18.9L 233.841 27.048Z"/>
<path id="path7_fill" d="M 268.114 35.952C 271.362 35.952 275.114 36.484 279.37 37.548L 279.37 33.516C 279.37 30.66 278.782 28.56 277.606 27.216C 276.486 25.816 274.61 25.116 271.978 25.116C 269.402 25.116 267.414 25.648 266.014 26.712C 264.614 27.72 263.914 29.176 263.914 31.08L 253.078 31.08C 253.078 26.432 254.702 23.072 257.95 21C 261.254 18.928 265.846 17.892 271.726 17.892C 280.126 17.892 285.558 20.832 288.022 26.712C 288.862 28.728 289.282 31.108 289.282 33.852L 289.282 59.808L 280.63 59.808L 279.874 54.348C 277.242 58.772 273.21 60.984 267.778 60.984C 262.514 60.984 258.426 59.696 255.514 57.12C 252.826 54.656 251.482 51.548 251.482 47.796C 251.482 43.988 252.966 41.076 255.934 39.06C 258.902 36.988 262.962 35.952 268.114 35.952ZM 279.37 43.848C 276.066 42.952 272.986 42.504 270.13 42.504C 264.754 42.504 262.066 44.296 262.066 47.88C 262.066 49.392 262.682 50.708 263.914 51.828C 265.146 52.892 267.106 53.424 269.794 53.424C 272.538 53.424 274.778 52.528 276.514 50.736C 278.306 48.888 279.258 46.592 279.37 43.848Z"/>
<path id="path8_fill" d="M 300.369 18.9L 310.281 18.9L 310.281 59.808L 300.369 59.808L 300.369 18.9ZM 299.193 5.796C 299.193 4.004 299.725 2.604 300.789 1.596C 301.853 0.532001 303.365 0 305.325 0C 307.229 0 308.713 0.532001 309.777 1.596C 310.897 2.604 311.457 4.004 311.457 5.796C 311.457 7.588 310.897 9.016 309.777 10.08C 308.713 11.088 307.229 11.592 305.325 11.592C 303.365 11.592 301.853 11.088 300.789 10.08C 299.725 9.016 299.193 7.588 299.193 5.796Z"/>
<path id="path9_fill" d="M 322.891 2.184L 332.803 2.184L 332.803 59.808L 322.891 59.808L 322.891 2.184Z"/>
<path id="path10_fill" d="M 380.233 5.292C 386.393 5.292 391.181 6.804 394.597 9.828C 398.069 12.796 399.805 17.08 399.805 22.68C 399.805 28.224 398.069 32.508 394.597 35.532C 391.181 38.5 386.393 39.984 380.233 39.984L 370.993 39.984L 370.993 59.808L 360.997 59.808L 360.997 5.292L 380.233 5.292ZM 380.233 31.332C 383.313 31.332 385.637 30.52 387.205 28.896C 388.773 27.272 389.557 25.2 389.557 22.68C 389.557 20.104 388.773 18.004 387.205 16.38C 385.637 14.7 383.313 13.86 380.233 13.86L 370.993 13.86L 370.993 31.332L 380.233 31.332Z"/>
<path id="path11_fill" d="M 415.77 27.048C 418.234 21.168 421.93 18.228 426.858 18.228C 427.81 18.228 429.014 18.424 430.47 18.816L 430.302 28.728C 428.734 28.392 427.194 28.224 425.682 28.224C 419.074 28.224 415.77 32.788 415.77 41.916L 415.77 59.808L 405.858 59.808L 405.858 18.9L 415.77 18.9L 415.77 27.048Z"/>
<path id="path12_fill" d="M 465.079 23.856C 466.479 25.648 467.515 27.72 468.187 30.072C 468.915 32.424 469.279 34.58 469.279 36.54C 469.279 38.5 469.167 40.264 468.943 41.832L 442.567 41.832C 442.679 45.136 443.491 47.824 445.003 49.896C 446.515 51.968 448.811 53.004 451.891 53.004C 455.979 53.004 458.415 51.212 459.199 47.628L 469.195 47.628C 468.523 51.716 466.647 54.936 463.567 57.288C 460.375 59.752 456.483 60.984 451.891 60.984C 446.515 60.984 442.007 59.024 438.367 55.104C 434.615 51.016 432.739 45.78 432.739 39.396C 432.739 32.844 434.615 27.58 438.367 23.604C 441.951 19.796 446.459 17.892 451.891 17.892C 457.547 17.892 461.943 19.88 465.079 23.856ZM 451.975 25.788C 449.175 25.788 446.991 26.712 445.423 28.56C 443.855 30.352 442.931 32.676 442.651 35.532L 460.039 35.532C 460.039 31.108 458.639 28.14 455.839 26.628C 454.775 26.068 453.487 25.788 451.975 25.788Z"/>
<path id="path13_fill" d="M 486.018 24.528C 488.594 20.104 492.514 17.892 497.778 17.892C 502.818 17.892 507.13 19.796 510.714 23.604C 514.522 27.636 516.426 32.9 516.426 39.396C 516.426 45.948 514.494 51.24 510.63 55.272C 507.046 59.08 502.762 60.984 497.778 60.984C 492.794 60.984 489.154 59.5 486.858 56.532L 486.858 79.716L 476.946 79.716L 476.946 18.984L 485.094 18.984L 486.018 24.528ZM 496.014 51.996C 497.19 51.996 498.394 51.744 499.626 51.24C 500.914 50.736 502.062 49.952 503.07 48.888C 505.31 46.536 506.43 43.4 506.43 39.48C 506.43 35.504 505.45 32.396 503.49 30.156C 501.586 27.916 499.234 26.796 496.434 26.796C 493.69 26.796 491.422 27.608 489.63 29.232C 487.894 30.8 486.97 33.068 486.858 36.036L 486.858 43.344C 486.858 45.976 487.782 48.104 489.63 49.728C 491.366 51.24 493.494 51.996 496.014 51.996Z"/>
</defs>
</svg>
